{"title":"Black Butterflies 2011 DVDRip XviD-EXViD[no rars]","uid":6604888,"size":735136871,"categoryP":"video","categoryS":"movies","magnet":"?xt=urn:btih:274c2f93dc61bb7f661321ff684a303ff277cd9a&amp;dn=Black+Butterflies+2011+DVDRip+XviD-EXViD%5Bno+rars%5D&amp;tr=udp%3A%2F%2Ftracker.openbittorrent.com%3A80&amp;tr=udp%3A%2F%2Fopen.demonii.com%3A1337&amp;tr=udp%3A%2F%2Ftracker.coppersurfer.tk%3A6969&amp;tr=udp%3A%2F%2Fexodus.desync.com%3A6969","seeders":1,"leechers":0,"uploader":"DibyaTPB","files":8,"time":1313356675,"description":" She searched for a home, she searched for love. Confronted by Apartheid and a father who was Minister of censorship...\n\nRuntime: 100 min Language: English (Germany, Netherlands, South Africa) Director: Paula van der Oest Writer: Greg Latter Cast: Rutger Hauer, Liam Cunningham, Carice van Houten, Grant Swanby, Graham Clarke, Leon Clingman, Nicholas Pauling, Damon Berry, Jennifer Steyn, Candice D'Arcy, Waldemar Schultz, Tarryn Page, Sabrina Oschmann, Florence Masebe, Ceridwen Morris Link: http://www.imdb.com/title/tt906778 \n\nEXVID\n\nFilled the Archives\n\nWith:\n\nE240\n\nSP              (C) 2009\n\nBlack.Butterflies.2011.DVDRip.XviD-EXViD\n\nEXViD aims to iNTERNAL those releases which have been lost in the archives\nEXViD aims to PRE non-internal releases which have poor sources and are likely skipped by others\n &lt;a href=&quot;\nhttp://www.imdb.com/title/tt0906778&quot; rel=&quot;nofollow&quot; target=&quot;_NEW&quot;&gt;\nhttp://www.imdb.com/title/tt0906778&lt;/a&gt;\nSubtitles: Dutch\nDate: 2011.08\n\nDirector: Paula van der Oest\n\nGenres: Drama\n\nPlot\nShe searched for a home, she searched for love. Confronted by Apartheid and a father who was\nMinister of censorship. With men like Jack Cope and Andre Brink she found much love, but no home\nIn his first speech to the South African Parliament Nelson Mandela read her poem &quot;The Dead Child\nof Nyanga&quot; and addresses her as one of the finest poets of South Africa\n\nCast\n\nRutger Hauer  ...  Abraham Jonker\nLiam Cunningham  ...  Jack Cope\nCarice van Houten  ...  Ingrid Jonker\nGrant Swanby  ...  Jan Rabie\nGraham Clarke  ...  Uys Krige\nLeon Clingman  ...  Valkenberg receptionist\nNicholas Pauling  ...  Eugene Maritz\nDamon Berry  ...  Pieter Venter\nJennifer Steyn  ...  Lucille - Lulu\nCandice D'Arcy  ...  Anna Jonker\nWaldemar Schultz  ...  Ettiene le Roux\nTarryn Page  ...  Irma\nSabrina Oschmann  ...  Young Ingrid\nFlorence Masebe  ...  Maria\nCeridwen Morris  ...  Marjorie\nThamsanqua Mbongo  ...  Nkosi\nLouis Pretorius  ...  Mike Loots\nMarthinus Van den Berg  ...  Maruis Schoon\n\nStats\nFormat                          : AVI\nFormat/Info                      : Audio Video Interleave\nFile size                        : 700 MiB\nDuration                        : 1h 35mn\nOverall bit rate                : 1 026 Kbps\nWriting application              : Nandub v1.0rc2\nWriting library                  : Nandub build 1852/release\n\nVideo\nID                              : 0\nFormat                          : MPEG-4 Visual\nFormat profile                  : Advanced SimpleL5\nFormat settings, BVOP            : 1\nFormat settings, QPel            : No\nFormat settings, GMC            : No warppoints\nFormat settings, Matrix          : Default (H.263\nCodec ID                        : XVID\nCodec ID/Hint                    : XviD\nDuration                        : 1h 35mn\nBit rate                        : 891 Kbps\nWidth                            : 640 pixels\nHeight                          : 272 pixels\nDisplay aspect ratio            : 2.35:1\nFrame rate                      : 25.000 fps\nColor space                      : YUV\nChroma subsampling              : 4:2:0\nBit depth                        : 8 bits\nScan type                        : Progressive\nCompression mode                : Lossy\nBits/(PixelFrame)              : 0.205\nStream size                      : 608 MiB (87\nWriting library                  : XviD 64\n\nAudio\nID                              : 1\nFormat                          : MPEG Audio\nFormat version                  : Version 1\nFormat profile                  : Layer 3\nMode                            : Joint stereo\nMode extension                  : MS Stereo\nCodec ID                        : 55\nCodec ID/Hint                    : MP3\nDuration                        : 1h 35mn\nBit rate mode                    : Variable\nBit rate                        : 128 Kbps\nChannel(s)                      : 2 channels\nSampling rate                    : 48.0 KHz\nCompression mode                : Lossy\nStream size                      : 83.2 MiB (12\nAlignment                        : Aligned on interleaves\nInterleave, duration            : 24 ms (0.60 video frame\nInterleave, preload duration    : 453 ms\nWriting library                  : LAME3.98r\nEncoding settings                : -m j -V 4 -q 3 -lowpass 17 --abr 128\n\nRelease notes\nenjoy\n\nLooking for\n75TB Archives\nDUTCH/FLEMiSH Archives\n\nGreets: CRBS EPiSODE FiCO FLS iLS KLASSiGER LiPSYNC MADE NODLABS RUNNER SPRiNTER\n\nASCII DONE BY XXNFO 2oo9\n","torrent":{"xt":"urn:btih:274c2f93dc61bb7f661321ff684a303ff277cd9a","amp;dn":"Black+Butterflies+2011+DVDRip+XviD-EXViD%5Bno+rars%5D","amp;tr":["udp%3A%2F%2Ftracker.openbittorrent.com%3A80","udp%3A%2F%2Fopen.demonii.com%3A1337","udp%3A%2F%2Ftracker.coppersurfer.tk%3A6969","udp%3A%2F%2Fexodus.desync.com%3A6969"],"infoHash":"274c2f93dc61bb7f661321ff684a303ff277cd9a","infoHashBuffer":{"type":"Buffer","data":[39,76,47,147,220,97,187,127,102,19,33,255,104,74,48,63,242,119,205,154]},"announce":[],"urlList":[]}}